<svg xmlns="http://www.w3.org/2000/svg" xmlns:xlink="http://www.w3.org/1999/xlink" width="300" zoomAndPan="magnify" viewBox="0 0 224.87999 93.749996" height="125" preserveAspectRatio="xMidYMid meet" version="1.0"><defs><g/><clipPath id="f928234412"><path d="M 15.746094 17.851562 L 85.195312 17.851562 L 85.195312 84.425781 L 15.746094 84.425781 Z M 15.746094 17.851562 " clip-rule="nonzero"/></clipPath><clipPath id="816b26a879"><path d="M 35 14.902344 L 41 14.902344 L 41 18 L 35 18 Z M 35 14.902344 " clip-rule="nonzero"/></clipPath><clipPath id="bef2c76799"><path d="M 41 17 L 53 17 L 53 33.601562 L 41 33.601562 Z M 41 17 " clip-rule="nonzero"/></clipPath><clipPath id="71a336657d"><path d="M 66 17 L 78 17 L 78 33.601562 L 66 33.601562 Z M 66 17 " clip-rule="nonzero"/></clipPath></defs><g fill="#f4a829" fill-opacity="1"><g transform="translate(93.955261, 68.93736)"><g><path d="M 4.828125 0 C 4.160156 0 3.660156 -0.0820312 3.328125 -0.25 C 2.992188 -0.425781 2.753906 -0.738281 2.609375 -1.1875 C 2.472656 -1.632812 2.40625 -2.316406 2.40625 -3.234375 L 2.40625 -17.8125 L 4.828125 -17.8125 L 4.828125 -3.234375 C 4.828125 -2.316406 4.953125 -1.640625 5.203125 -1.203125 C 5.460938 -0.765625 5.96875 -0.546875 6.71875 -0.546875 L 7.265625 -0.546875 L 7.265625 0 Z M 4.828125 0 "/></g></g></g><g fill="#f4a829" fill-opacity="1"><g transform="translate(104.350062, 68.93736)"><g><path d="M 22.703125 1.21875 C 21.410156 1.21875 20.40625 1.019531 19.6875 0.625 C 18.96875 0.226562 18.457031 -0.382812 18.15625 -1.21875 C 17.863281 -2.0625 17.71875 -3.1875 17.71875 -4.59375 L 17.71875 -14.984375 L 10.96875 0 L 10.421875 0 L 3.40625 -15.25 L 3.40625 0 L 2.328125 0 L 2.328125 -17.8125 L 4.890625 -17.8125 L 11.359375 -3.78125 L 17.71875 -17.8125 L 20.140625 -17.8125 L 20.140625 -4.59375 C 20.140625 -2.914062 20.347656 -1.617188 20.765625 -0.703125 C 21.191406 0.210938 21.835938 0.671875 22.703125 0.671875 Z M 22.703125 1.21875 "/></g></g></g><g fill="#f4a829" fill-opacity="1"><g transform="translate(130.133369, 68.93736)"><g><path d="M 2.859375 -14.578125 C 2.859375 -15.492188 2.734375 -16.171875 2.484375 -16.609375 C 2.234375 -17.054688 1.726562 -17.28125 0.96875 -17.28125 L 0.4375 -17.28125 L 0.4375 -17.8125 L 7.453125 -17.8125 C 9.179688 -17.8125 10.738281 -17.441406 12.125 -16.703125 C 13.507812 -15.972656 14.203125 -14.546875 14.203125 -12.421875 C 14.203125 -11.015625 13.84375 -9.929688 13.125 -9.171875 C 12.40625 -8.421875 11.597656 -7.921875 10.703125 -7.671875 C 9.816406 -7.421875 9.003906 -7.296875 8.265625 -7.296875 L 5.296875 -7.296875 L 5.296875 0 L 2.859375 0 Z M 7.3125 -8.234375 C 7.894531 -8.234375 8.507812 -8.378906 9.15625 -8.671875 C 9.800781 -8.972656 10.351562 -9.445312 10.8125 -10.09375 C 11.269531 -10.738281 11.5 -11.5625 11.5 -12.5625 C 11.5 -13.550781 11.269531 -14.367188 10.8125 -15.015625 C 10.351562 -15.660156 9.800781 -16.128906 9.15625 -16.421875 C 8.507812 -16.722656 7.894531 -16.875 7.3125 -16.875 C 6.6875 -16.875 6.015625 -16.785156 5.296875 -16.609375 L 5.296875 -8.5 C 6.015625 -8.320312 6.6875 -8.234375 7.3125 -8.234375 Z M 7.3125 -8.234375 "/></g></g></g><g fill="#f4a829" fill-opacity="1"><g transform="translate(147.736467, 68.93736)"><g><path d="M 2.859375 -14.578125 C 2.859375 -15.492188 2.734375 -16.171875 2.484375 -16.609375 C 2.234375 -17.054688 1.726562 -17.28125 0.96875 -17.28125 L 0.4375 -17.28125 L 0.4375 -17.8125 L 11.9375 -17.8125 C 13.46875 -17.8125 14.234375 -17.09375 14.234375 -15.65625 L 14.234375 -13.640625 L 13.6875 -13.640625 C 13.6875 -15.703125 12.5625 -16.734375 10.3125 -16.734375 L 5.296875 -16.734375 L 5.296875 -9.71875 L 12.578125 -9.71875 L 12.578125 -8.640625 L 5.296875 -8.640625 L 5.296875 -1.078125 L 10.015625 -1.078125 C 11.253906 -1.078125 12.222656 -1.300781 12.921875 -1.75 C 13.628906 -2.207031 14.191406 -2.972656 14.609375 -4.046875 L 15.140625 -3.921875 L 14.203125 -1.34375 C 13.878906 -0.445312 13.203125 0 12.171875 0 L 2.859375 0 Z M 2.859375 -14.578125 "/></g></g></g><g fill="#f4a829" fill-opacity="1"><g transform="translate(166.365467, 68.93736)"><g><path d="M 4.078125 -14.3125 C 3.640625 -14.9375 3.257812 -15.429688 2.9375 -15.796875 C 2.613281 -16.171875 2.191406 -16.5 1.671875 -16.78125 C 1.148438 -17.070312 0.507812 -17.238281 -0.25 -17.28125 L -0.25 -17.8125 L 3 -17.8125 C 3.789062 -17.8125 4.457031 -17.554688 5 -17.046875 C 5.539062 -16.535156 6.132812 -15.800781 6.78125 -14.84375 L 9.484375 -10.796875 L 14.875 -17.8125 L 16.234375 -17.8125 L 10.15625 -9.859375 L 14.46875 -3.515625 C 15.03125 -2.679688 15.628906 -1.988281 16.265625 -1.4375 C 16.898438 -0.894531 17.609375 -0.597656 18.390625 -0.546875 L 18.390625 0 L 15.546875 0 C 14.773438 0 14.09375 -0.269531 13.5 -0.8125 C 12.90625 -1.363281 12.328125 -2.082031 11.765625 -2.96875 L 8.53125 -7.828125 L 2.453125 0 L 1.109375 0 L 7.859375 -8.78125 Z M 4.078125 -14.3125 "/></g></g></g><g fill="#dc5145" fill-opacity="1"><g transform="translate(93.955261, 46.101806)"><g><path d="M 6.5 0.390625 C 5.65625 0.390625 4.828125 0.273438 4.015625 0.046875 C 3.203125 -0.179688 2.535156 -0.507812 2.015625 -0.9375 C 1.503906 -1.375 1.25 -1.867188 1.25 -2.421875 L 1.25 -4.890625 L 1.65625 -4.890625 C 1.914062 -3.347656 2.421875 -2.234375 3.171875 -1.546875 C 3.929688 -0.867188 4.972656 -0.53125 6.296875 -0.53125 C 7.128906 -0.53125 7.835938 -0.738281 8.421875 -1.15625 C 9.015625 -1.570312 9.3125 -2.144531 9.3125 -2.875 C 9.3125 -3.519531 9.113281 -4.082031 8.71875 -4.5625 C 8.320312 -5.039062 7.675781 -5.539062 6.78125 -6.0625 L 3.9375 -7.75 C 2.957031 -8.332031 2.265625 -8.921875 1.859375 -9.515625 C 1.453125 -10.117188 1.25 -10.851562 1.25 -11.71875 C 1.25 -12.894531 1.660156 -13.84375 2.484375 -14.5625 C 3.304688 -15.28125 4.382812 -15.640625 5.71875 -15.640625 C 6.5 -15.640625 7.273438 -15.523438 8.046875 -15.296875 C 8.816406 -15.078125 9.453125 -14.753906 9.953125 -14.328125 C 10.453125 -13.910156 10.703125 -13.425781 10.703125 -12.875 L 10.703125 -10.40625 L 10.28125 -10.40625 C 10.019531 -11.9375 9.523438 -13.035156 8.796875 -13.703125 C 8.066406 -14.378906 7.039062 -14.71875 5.71875 -14.71875 C 5.007812 -14.71875 4.382812 -14.5 3.84375 -14.0625 C 3.3125 -13.632812 3.046875 -13.078125 3.046875 -12.390625 C 3.046875 -11.753906 3.238281 -11.226562 3.625 -10.8125 C 4.019531 -10.394531 4.679688 -9.910156 5.609375 -9.359375 L 8.4375 -7.6875 C 9.488281 -7.050781 10.226562 -6.460938 10.65625 -5.921875 C 11.082031 -5.390625 11.296875 -4.707031 11.296875 -3.875 C 11.296875 -2.582031 10.863281 -1.546875 10 -0.765625 C 9.144531 0.00390625 7.976562 0.390625 6.5 0.390625 Z M 6.5 0.390625 "/></g></g></g><g fill="#dc5145" fill-opacity="1"><g transform="translate(106.242846, 46.101806)"><g><path d="M 5.609375 0.234375 C 4.453125 0.234375 3.507812 -0.0703125 2.78125 -0.6875 C 2.050781 -1.300781 1.6875 -2.378906 1.6875 -3.921875 L 1.6875 -8.078125 C 1.6875 -8.859375 1.578125 -9.4375 1.359375 -9.8125 C 1.140625 -10.1875 0.707031 -10.375 0.0625 -10.375 L -0.15625 -10.375 L -0.15625 -10.84375 L 1.6875 -10.84375 C 2.25 -10.84375 2.671875 -10.769531 2.953125 -10.625 C 3.242188 -10.476562 3.453125 -10.210938 3.578125 -9.828125 C 3.703125 -9.441406 3.765625 -8.859375 3.765625 -8.078125 L 3.765625 -3.921875 C 3.765625 -2.847656 4.003906 -2.0625 4.484375 -1.5625 C 4.972656 -1.0625 5.578125 -0.8125 6.296875 -0.8125 C 7.109375 -0.8125 7.878906 -1.21875 8.609375 -2.03125 L 8.609375 -10.84375 L 10.671875 -10.84375 L 10.671875 0 L 9.53125 0 L 8.71875 -0.921875 L 8.609375 -0.921875 C 8.285156 -0.597656 7.863281 -0.320312 7.34375 -0.09375 C 6.832031 0.125 6.253906 0.234375 5.609375 0.234375 Z M 5.609375 0.234375 "/></g></g></g><g fill="#dc5145" fill-opacity="1"><g transform="translate(118.576528, 46.101806)"><g><path d="M 2 -8.078125 C 2 -8.859375 1.890625 -9.4375 1.671875 -9.8125 C 1.460938 -10.1875 1.035156 -10.375 0.390625 -10.375 L -0.0625 -10.375 L -0.0625 -10.84375 L 2 -10.84375 C 2.582031 -10.84375 3.023438 -10.757812 3.328125 -10.59375 C 3.628906 -10.4375 3.84375 -10.171875 3.96875 -9.796875 L 4.078125 -9.796875 C 4.359375 -10.148438 4.75 -10.445312 5.25 -10.6875 C 5.757812 -10.9375 6.410156 -11.0625 7.203125 -11.0625 C 8.515625 -11.0625 9.53125 -10.523438 10.25 -9.453125 C 10.976562 -8.390625 11.34375 -7.046875 11.34375 -5.421875 C 11.34375 -3.773438 10.96875 -2.421875 10.21875 -1.359375 C 9.476562 -0.296875 8.394531 0.234375 6.96875 0.234375 C 6.382812 0.234375 5.867188 0.171875 5.421875 0.046875 C 4.972656 -0.078125 4.523438 -0.25 4.078125 -0.46875 L 4.078125 4.375 L 2 4.375 Z M 6.265625 -0.6875 C 7.253906 -0.6875 7.984375 -1.117188 8.453125 -1.984375 C 8.921875 -2.847656 9.15625 -3.992188 9.15625 -5.421875 C 9.15625 -6.835938 8.929688 -7.976562 8.484375 -8.84375 C 8.035156 -9.707031 7.375 -10.140625 6.5 -10.140625 C 5.46875 -10.140625 4.660156 -9.679688 4.078125 -8.765625 L 4.078125 -1.390625 C 4.546875 -1.171875 4.945312 -1 5.28125 -0.875 C 5.613281 -0.75 5.941406 -0.6875 6.265625 -0.6875 Z M 6.265625 -0.6875 "/></g></g></g><g fill="#dc5145" fill-opacity="1"><g transform="translate(130.979378, 46.101806)"><g><path d="M 5.875 0.234375 C 4.832031 0.234375 3.945312 -0.015625 3.21875 -0.515625 C 2.5 -1.015625 1.953125 -1.691406 1.578125 -2.546875 C 1.210938 -3.398438 1.03125 -4.359375 1.03125 -5.421875 C 1.03125 -6.460938 1.210938 -7.414062 1.578125 -8.28125 C 1.953125 -9.144531 2.488281 -9.820312 3.1875 -10.3125 C 3.894531 -10.8125 4.71875 -11.0625 5.65625 -11.0625 C 7.207031 -11.0625 8.363281 -10.628906 9.125 -9.765625 C 9.882812 -8.898438 10.265625 -7.644531 10.265625 -6 L 10.21875 -5.078125 L 3.234375 -5.078125 C 3.234375 -3.785156 3.507812 -2.726562 4.0625 -1.90625 C 4.613281 -1.09375 5.375 -0.6875 6.34375 -0.6875 C 7.0625 -0.6875 7.671875 -0.835938 8.171875 -1.140625 C 8.671875 -1.453125 9.140625 -1.914062 9.578125 -2.53125 L 10.03125 -2.1875 C 9.519531 -1.34375 8.925781 -0.726562 8.25 -0.34375 C 7.570312 0.0390625 6.78125 0.234375 5.875 0.234375 Z M 8.078125 -6 C 8.078125 -7.351562 7.875 -8.378906 7.46875 -9.078125 C 7.070312 -9.785156 6.46875 -10.140625 5.65625 -10.140625 C 5.1875 -10.140625 4.765625 -9.957031 4.390625 -9.59375 C 4.023438 -9.238281 3.738281 -8.742188 3.53125 -8.109375 C 3.332031 -7.484375 3.234375 -6.78125 3.234375 -6 Z M 8.078125 -6 "/></g></g></g><g fill="#dc5145" fill-opacity="1"><g transform="translate(142.229544, 46.101806)"><g><path d="M 1.84375 -8.078125 C 1.84375 -8.859375 1.734375 -9.4375 1.515625 -9.8125 C 1.304688 -10.1875 0.878906 -10.375 0.234375 -10.375 L 0 -10.375 L 0 -10.84375 L 1.84375 -10.84375 C 2.425781 -10.84375 2.867188 -10.757812 3.171875 -10.59375 C 3.472656 -10.4375 3.6875 -10.171875 3.8125 -9.796875 L 3.921875 -9.796875 C 4.191406 -10.148438 4.5625 -10.445312 5.03125 -10.6875 C 5.507812 -10.9375 6.0625 -11.0625 6.6875 -11.0625 C 7.300781 -11.0625 7.765625 -10.945312 8.078125 -10.71875 C 8.335938 -10.519531 8.601562 -10.175781 8.875 -9.6875 L 7.953125 -9 C 7.785156 -9.226562 7.539062 -9.398438 7.21875 -9.515625 C 6.894531 -9.628906 6.523438 -9.6875 6.109375 -9.6875 C 5.648438 -9.6875 5.226562 -9.582031 4.84375 -9.375 C 4.457031 -9.164062 4.148438 -8.882812 3.921875 -8.53125 L 3.921875 0 L 1.84375 0 Z M 1.84375 -8.078125 "/></g></g></g><g fill="#dc5145" fill-opacity="1"><g transform="translate(151.381833, 46.101806)"><g/></g></g><g fill="#dc5145" fill-opacity="1"><g transform="translate(157.145234, 46.101806)"><g><path d="M 6.5 0.390625 C 5.65625 0.390625 4.828125 0.273438 4.015625 0.046875 C 3.203125 -0.179688 2.535156 -0.507812 2.015625 -0.9375 C 1.503906 -1.375 1.25 -1.867188 1.25 -2.421875 L 1.25 -4.890625 L 1.65625 -4.890625 C 1.914062 -3.347656 2.421875 -2.234375 3.171875 -1.546875 C 3.929688 -0.867188 4.972656 -0.53125 6.296875 -0.53125 C 7.128906 -0.53125 7.835938 -0.738281 8.421875 -1.15625 C 9.015625 -1.570312 9.3125 -2.144531 9.3125 -2.875 C 9.3125 -3.519531 9.113281 -4.082031 8.71875 -4.5625 C 8.320312 -5.039062 7.675781 -5.539062 6.78125 -6.0625 L 3.9375 -7.75 C 2.957031 -8.332031 2.265625 -8.921875 1.859375 -9.515625 C 1.453125 -10.117188 1.25 -10.851562 1.25 -11.71875 C 1.25 -12.894531 1.660156 -13.84375 2.484375 -14.5625 C 3.304688 -15.28125 4.382812 -15.640625 5.71875 -15.640625 C 6.5 -15.640625 7.273438 -15.523438 8.046875 -15.296875 C 8.816406 -15.078125 9.453125 -14.753906 9.953125 -14.328125 C 10.453125 -13.910156 10.703125 -13.425781 10.703125 -12.875 L 10.703125 -10.40625 L 10.28125 -10.40625 C 10.019531 -11.9375 9.523438 -13.035156 8.796875 -13.703125 C 8.066406 -14.378906 7.039062 -14.71875 5.71875 -14.71875 C 5.007812 -14.71875 4.382812 -14.5 3.84375 -14.0625 C 3.3125 -13.632812 3.046875 -13.078125 3.046875 -12.390625 C 3.046875 -11.753906 3.238281 -11.226562 3.625 -10.8125 C 4.019531 -10.394531 4.679688 -9.910156 5.609375 -9.359375 L 8.4375 -7.6875 C 9.488281 -7.050781 10.226562 -6.460938 10.65625 -5.921875 C 11.082031 -5.390625 11.296875 -4.707031 11.296875 -3.875 C 11.296875 -2.582031 10.863281 -1.546875 10 -0.765625 C 9.144531 0.00390625 7.976562 0.390625 6.5 0.390625 Z M 6.5 0.390625 "/></g></g></g><g fill="#dc5145" fill-opacity="1"><g transform="translate(169.43282, 46.101806)"><g><path d="M 5.609375 0.234375 C 4.453125 0.234375 3.507812 -0.0703125 2.78125 -0.6875 C 2.050781 -1.300781 1.6875 -2.378906 1.6875 -3.921875 L 1.6875 -8.078125 C 1.6875 -8.859375 1.578125 -9.4375 1.359375 -9.8125 C 1.140625 -10.1875 0.707031 -10.375 0.0625 -10.375 L -0.15625 -10.375 L -0.15625 -10.84375 L 1.6875 -10.84375 C 2.25 -10.84375 2.671875 -10.769531 2.953125 -10.625 C 3.242188 -10.476562 3.453125 -10.210938 3.578125 -9.828125 C 3.703125 -9.441406 3.765625 -8.859375 3.765625 -8.078125 L 3.765625 -3.921875 C 3.765625 -2.847656 4.003906 -2.0625 4.484375 -1.5625 C 4.972656 -1.0625 5.578125 -0.8125 6.296875 -0.8125 C 7.109375 -0.8125 7.878906 -1.21875 8.609375 -2.03125 L 8.609375 -10.84375 L 10.671875 -10.84375 L 10.671875 0 L 9.53125 0 L 8.71875 -0.921875 L 8.609375 -0.921875 C 8.285156 -0.597656 7.863281 -0.320312 7.34375 -0.09375 C 6.832031 0.125 6.253906 0.234375 5.609375 0.234375 Z M 5.609375 0.234375 "/></g></g></g><g fill="#dc5145" fill-opacity="1"><g transform="translate(181.766502, 46.101806)"><g><path d="M 2 -8.078125 C 2 -8.859375 1.890625 -9.4375 1.671875 -9.8125 C 1.460938 -10.1875 1.035156 -10.375 0.390625 -10.375 L -0.0625 -10.375 L -0.0625 -10.84375 L 2 -10.84375 C 2.582031 -10.84375 3.023438 -10.757812 3.328125 -10.59375 C 3.628906 -10.4375 3.84375 -10.171875 3.96875 -9.796875 L 4.078125 -9.796875 C 4.359375 -10.148438 4.75 -10.445312 5.25 -10.6875 C 5.757812 -10.9375 6.410156 -11.0625 7.203125 -11.0625 C 8.515625 -11.0625 9.53125 -10.523438 10.25 -9.453125 C 10.976562 -8.390625 11.34375 -7.046875 11.34375 -5.421875 C 11.34375 -3.773438 10.96875 -2.421875 10.21875 -1.359375 C 9.476562 -0.296875 8.394531 0.234375 6.96875 0.234375 C 6.382812 0.234375 5.867188 0.171875 5.421875 0.046875 C 4.972656 -0.078125 4.523438 -0.25 4.078125 -0.46875 L 4.078125 4.375 L 2 4.375 Z M 6.265625 -0.6875 C 7.253906 -0.6875 7.984375 -1.117188 8.453125 -1.984375 C 8.921875 -2.847656 9.15625 -3.992188 9.15625 -5.421875 C 9.15625 -6.835938 8.929688 -7.976562 8.484375 -8.84375 C 8.035156 -9.707031 7.375 -10.140625 6.5 -10.140625 C 5.46875 -10.140625 4.660156 -9.679688 4.078125 -8.765625 L 4.078125 -1.390625 C 4.546875 -1.171875 4.945312 -1 5.28125 -0.875 C 5.613281 -0.75 5.941406 -0.6875 6.265625 -0.6875 Z M 6.265625 -0.6875 "/></g></g></g><g fill="#dc5145" fill-opacity="1"><g transform="translate(194.169352, 46.101806)"><g><path d="M 2 -8.078125 C 2 -8.859375 1.890625 -9.4375 1.671875 -9.8125 C 1.460938 -10.1875 1.035156 -10.375 0.390625 -10.375 L -0.0625 -10.375 L -0.0625 -10.84375 L 2 -10.84375 C 2.582031 -10.84375 3.023438 -10.757812 3.328125 -10.59375 C 3.628906 -10.4375 3.84375 -10.171875 3.96875 -9.796875 L 4.078125 -9.796875 C 4.359375 -10.148438 4.75 -10.445312 5.25 -10.6875 C 5.757812 -10.9375 6.410156 -11.0625 7.203125 -11.0625 C 8.515625 -11.0625 9.53125 -10.523438 10.25 -9.453125 C 10.976562 -8.390625 11.34375 -7.046875 11.34375 -5.421875 C 11.34375 -3.773438 10.96875 -2.421875 10.21875 -1.359375 C 9.476562 -0.296875 8.394531 0.234375 6.96875 0.234375 C 6.382812 0.234375 5.867188 0.171875 5.421875 0.046875 C 4.972656 -0.078125 4.523438 -0.25 4.078125 -0.46875 L 4.078125 4.375 L 2 4.375 Z M 6.265625 -0.6875 C 7.253906 -0.6875 7.984375 -1.117188 8.453125 -1.984375 C 8.921875 -2.847656 9.15625 -3.992188 9.15625 -5.421875 C 9.15625 -6.835938 8.929688 -7.976562 8.484375 -8.84375 C 8.035156 -9.707031 7.375 -10.140625 6.5 -10.140625 C 5.46875 -10.140625 4.660156 -9.679688 4.078125 -8.765625 L 4.078125 -1.390625 C 4.546875 -1.171875 4.945312 -1 5.28125 -0.875 C 5.613281 -0.75 5.941406 -0.6875 6.265625 -0.6875 Z M 6.265625 -0.6875 "/></g></g></g><g fill="#dc5145" fill-opacity="1"><g transform="translate(206.572203, 46.101806)"><g><path d="M 1.75 -12.453125 C 1.75 -13.234375 1.640625 -13.8125 1.421875 -14.1875 C 1.210938 -14.570312 0.785156 -14.765625 0.140625 -14.765625 L -0.328125 -14.765625 L -0.328125 -15.21875 L 1.75 -15.21875 C 2.320312 -15.21875 2.75 -15.144531 3.03125 -15 C 3.3125 -14.851562 3.515625 -14.585938 3.640625 -14.203125 C 3.765625 -13.816406 3.828125 -13.234375 3.828125 -12.453125 L 3.828125 0 L 1.75 0 Z M 1.75 -12.453125 "/></g></g></g><g fill="#dc5145" fill-opacity="1"><g transform="translate(212.151183, 46.101806)"><g><path d="M 2.421875 3.921875 C 3.171875 3.921875 3.785156 3.742188 4.265625 3.390625 C 4.753906 3.046875 5.175781 2.414062 5.53125 1.5 L 6 0.234375 L 2.3125 -8.765625 C 1.875 -9.867188 1.023438 -10.484375 -0.234375 -10.609375 L -0.234375 -11.0625 L 1.734375 -11.0625 C 3.066406 -11.0625 3.988281 -10.445312 4.5 -9.21875 L 7.125 -2.84375 L 10.03125 -10.84375 L 11.1875 -10.84375 L 6.6875 1.5 C 6.238281 2.71875 5.742188 3.539062 5.203125 3.96875 C 4.671875 4.394531 3.972656 4.609375 3.109375 4.609375 L 2.421875 4.609375 Z M 2.421875 3.921875 "/></g></g></g><g fill="#737373" fill-opacity="1"><g transform="translate(93.955261, 77.58602)"><g><path d="M 0.84375 -3.609375 C 1.269531 -4.015625 1.796875 -4.21875 2.421875 -4.21875 C 3.054688 -4.21875 3.585938 -4.015625 4.015625 -3.609375 C 4.441406 -3.203125 4.65625 -2.695312 4.65625 -2.09375 C 4.65625 -1.5 4.441406 -0.992188 4.015625 -0.578125 C 3.585938 -0.171875 3.054688 0.03125 2.421875 0.03125 C 1.796875 0.03125 1.269531 -0.171875 0.84375 -0.578125 C 0.414062 -0.992188 0.203125 -1.5 0.203125 -2.09375 C 0.203125 -2.695312 0.414062 -3.203125 0.84375 -3.609375 Z M 2.4375 -3.578125 C 2.019531 -3.578125 1.660156 -3.429688 1.359375 -3.140625 C 1.066406 -2.859375 0.921875 -2.507812 0.921875 -2.09375 C 0.921875 -1.675781 1.066406 -1.320312 1.359375 -1.03125 C 1.660156 -0.75 2.015625 -0.609375 2.421875 -0.609375 C 2.835938 -0.609375 3.191406 -0.75 3.484375 -1.03125 C 3.785156 -1.320312 3.9375 -1.675781 3.9375 -2.09375 C 3.9375 -2.507812 3.785156 -2.859375 3.484375 -3.140625 C 3.191406 -3.429688 2.84375 -3.578125 2.4375 -3.578125 Z M 2.4375 -3.578125 "/></g></g></g><g fill="#737373" fill-opacity="1"><g transform="translate(100.619132, 77.58602)"><g><path d="M 4.1875 0 L 3.5 0 L 1.265625 -3.015625 L 1.265625 0 L 0.546875 0 L 0.546875 -4.203125 L 1.25 -4.203125 L 3.5 -1.1875 L 3.5 -4.203125 L 4.1875 -4.203125 Z M 4.1875 0 "/></g></g></g><g fill="#737373" fill-opacity="1"><g transform="translate(107.174946, 77.58602)"><g><path d="M 1.265625 -0.640625 L 3.078125 -0.640625 L 3.078125 0 L 0.546875 0 L 0.546875 -4.203125 L 1.265625 -4.203125 Z M 1.265625 -0.640625 "/></g></g></g><g fill="#737373" fill-opacity="1"><g transform="translate(112.181858, 77.58602)"><g><path d="M 1.265625 0 L 0.546875 0 L 0.546875 -4.203125 L 1.265625 -4.203125 Z M 1.265625 0 "/></g></g></g><g fill="#737373" fill-opacity="1"><g transform="translate(115.795951, 77.58602)"><g><path d="M 4.1875 0 L 3.5 0 L 1.265625 -3.015625 L 1.265625 0 L 0.546875 0 L 0.546875 -4.203125 L 1.25 -4.203125 L 3.5 -1.1875 L 3.5 -4.203125 L 4.1875 -4.203125 Z M 4.1875 0 "/></g></g></g><g fill="#737373" fill-opacity="1"><g transform="translate(122.351765, 77.58602)"><g><path d="M 3.546875 -3.5625 L 1.265625 -3.5625 L 1.265625 -2.4375 L 3.3125 -2.4375 L 3.3125 -1.796875 L 1.265625 -1.796875 L 1.265625 -0.640625 L 3.625 -0.640625 L 3.625 0 L 0.546875 0 L 0.546875 -4.203125 L 3.546875 -4.203125 Z M 3.546875 -3.5625 "/></g></g></g><g fill="#737373" fill-opacity="1"><g transform="translate(128.091099, 77.58602)"><g/></g></g><g fill="#737373" fill-opacity="1"><g transform="translate(131.44104, 77.58602)"><g><path d="M 1.9375 -4.234375 C 2.476562 -4.234375 2.96875 -4.085938 3.40625 -3.796875 L 3.109375 -3.171875 C 2.679688 -3.429688 2.269531 -3.5625 1.875 -3.5625 C 1.664062 -3.5625 1.5 -3.523438 1.375 -3.453125 C 1.25 -3.378906 1.1875 -3.269531 1.1875 -3.125 C 1.1875 -2.988281 1.242188 -2.867188 1.359375 -2.765625 C 1.472656 -2.671875 1.613281 -2.597656 1.78125 -2.546875 C 1.945312 -2.503906 2.128906 -2.445312 2.328125 -2.375 C 2.523438 -2.3125 2.707031 -2.238281 2.875 -2.15625 C 3.039062 -2.082031 3.175781 -1.960938 3.28125 -1.796875 C 3.394531 -1.628906 3.453125 -1.425781 3.453125 -1.1875 C 3.453125 -0.820312 3.304688 -0.523438 3.015625 -0.296875 C 2.722656 -0.078125 2.34375 0.03125 1.875 0.03125 C 1.550781 0.03125 1.238281 -0.03125 0.9375 -0.15625 C 0.632812 -0.28125 0.375 -0.441406 0.15625 -0.640625 L 0.46875 -1.25 C 0.675781 -1.050781 0.90625 -0.898438 1.15625 -0.796875 C 1.414062 -0.691406 1.660156 -0.640625 1.890625 -0.640625 C 2.128906 -0.640625 2.316406 -0.679688 2.453125 -0.765625 C 2.597656 -0.859375 2.671875 -0.988281 2.671875 -1.15625 C 2.671875 -1.300781 2.613281 -1.421875 2.5 -1.515625 C 2.382812 -1.609375 2.242188 -1.675781 2.078125 -1.71875 C 1.910156 -1.769531 1.726562 -1.828125 1.53125 -1.890625 C 1.332031 -1.960938 1.148438 -2.035156 0.984375 -2.109375 C 0.816406 -2.179688 0.675781 -2.300781 0.5625 -2.46875 C 0.457031 -2.632812 0.40625 -2.832031 0.40625 -3.0625 C 0.40625 -3.414062 0.539062 -3.695312 0.8125 -3.90625 C 1.09375 -4.125 1.46875 -4.234375 1.9375 -4.234375 Z M 1.9375 -4.234375 "/></g></g></g><g fill="#737373" fill-opacity="1"><g transform="translate(136.976254, 77.58602)"><g><path d="M 3.421875 -3.5625 L 2.09375 -3.5625 L 2.09375 0 L 1.375 0 L 1.375 -3.5625 L 0.046875 -3.5625 L 0.046875 -4.203125 L 3.421875 -4.203125 Z M 3.421875 -3.5625 "/></g></g></g><g fill="#737373" fill-opacity="1"><g transform="translate(142.253316, 77.58602)"><g><path d="M 0.84375 -3.609375 C 1.269531 -4.015625 1.796875 -4.21875 2.421875 -4.21875 C 3.054688 -4.21875 3.585938 -4.015625 4.015625 -3.609375 C 4.441406 -3.203125 4.65625 -2.695312 4.65625 -2.09375 C 4.65625 -1.5 4.441406 -0.992188 4.015625 -0.578125 C 3.585938 -0.171875 3.054688 0.03125 2.421875 0.03125 C 1.796875 0.03125 1.269531 -0.171875 0.84375 -0.578125 C 0.414062 -0.992188 0.203125 -1.5 0.203125 -2.09375 C 0.203125 -2.695312 0.414062 -3.203125 0.84375 -3.609375 Z M 2.4375 -3.578125 C 2.019531 -3.578125 1.660156 -3.429688 1.359375 -3.140625 C 1.066406 -2.859375 0.921875 -2.507812 0.921875 -2.09375 C 0.921875 -1.675781 1.066406 -1.320312 1.359375 -1.03125 C 1.660156 -0.75 2.015625 -0.609375 2.421875 -0.609375 C 2.835938 -0.609375 3.191406 -0.75 3.484375 -1.03125 C 3.785156 -1.320312 3.9375 -1.675781 3.9375 -2.09375 C 3.9375 -2.507812 3.785156 -2.859375 3.484375 -3.140625 C 3.191406 -3.429688 2.84375 -3.578125 2.4375 -3.578125 Z M 2.4375 -3.578125 "/></g></g></g><g fill="#737373" fill-opacity="1"><g transform="translate(148.917186, 77.58602)"><g><path d="M 3.21875 0 L 2.453125 -1.265625 C 2.410156 -1.265625 2.34375 -1.265625 2.25 -1.265625 L 1.265625 -1.265625 L 1.265625 0 L 0.546875 0 L 0.546875 -4.203125 L 2.25 -4.203125 C 2.789062 -4.203125 3.207031 -4.078125 3.5 -3.828125 C 3.800781 -3.578125 3.953125 -3.222656 3.953125 -2.765625 C 3.953125 -2.429688 3.875 -2.144531 3.71875 -1.90625 C 3.570312 -1.675781 3.359375 -1.507812 3.078125 -1.40625 L 4.015625 0 Z M 1.265625 -1.90625 L 2.25 -1.90625 C 2.9375 -1.90625 3.28125 -2.1875 3.28125 -2.75 C 3.28125 -3.289062 2.9375 -3.5625 2.25 -3.5625 L 1.265625 -3.5625 Z M 1.265625 -1.90625 "/></g></g></g><g fill="#737373" fill-opacity="1"><g transform="translate(155.058752, 77.58602)"><g><path d="M 3.546875 -3.5625 L 1.265625 -3.5625 L 1.265625 -2.4375 L 3.3125 -2.4375 L 3.3125 -1.796875 L 1.265625 -1.796875 L 1.265625 -0.640625 L 3.625 -0.640625 L 3.625 0 L 0.546875 0 L 0.546875 -4.203125 L 3.546875 -4.203125 Z M 3.546875 -3.5625 "/></g></g></g><g fill="#ffffff" fill-opacity="1"><g transform="translate(186.630907, 69.719502)"><g/></g></g><g fill="#ffffff" fill-opacity="1"><g transform="translate(190.408161, 69.719502)"><g/></g></g><g fill="#ffffff" fill-opacity="1"><g transform="translate(194.186708, 69.719502)"><g><path d="M 1.140625 -5.828125 C 1.140625 -6.191406 1.085938 -6.460938 0.984375 -6.640625 C 0.890625 -6.816406 0.691406 -6.90625 0.390625 -6.90625 L 0.171875 -6.90625 L 0.171875 -7.125 L 1.140625 -7.125 C 1.410156 -7.125 1.609375 -7.085938 1.734375 -7.015625 C 1.867188 -6.953125 1.960938 -6.828125 2.015625 -6.640625 C 2.078125 -6.460938 2.109375 -6.191406 2.109375 -5.828125 L 2.109375 -0.4375 L 5.953125 -0.4375 L 5.953125 0 L 1.140625 0 Z M 1.140625 -5.828125 "/></g></g></g><g fill="#ffffff" fill-opacity="1"><g transform="translate(201.287661, 69.719502)"><g><path d="M 1.796875 -6.6875 C 0.890625 -6.6875 0.4375 -6.273438 0.4375 -5.453125 L 0.234375 -5.453125 L 0.234375 -6.265625 C 0.234375 -6.835938 0.535156 -7.125 1.140625 -7.125 L 6.171875 -7.125 L 6.171875 -6.6875 L 3.734375 -6.6875 L 3.734375 0 L 2.765625 0 L 2.765625 -6.6875 Z M 1.796875 -6.6875 "/></g></g></g><g fill="#ffffff" fill-opacity="1"><g transform="translate(208.658396, 69.719502)"><g><path d="M 1.140625 -5.828125 C 1.140625 -6.191406 1.085938 -6.460938 0.984375 -6.640625 C 0.890625 -6.816406 0.691406 -6.90625 0.390625 -6.90625 L 0.171875 -6.90625 L 0.171875 -7.125 L 3 -7.125 C 4.394531 -7.125 5.453125 -6.8125 6.171875 -6.1875 C 6.890625 -5.570312 7.25 -4.710938 7.25 -3.609375 C 7.25 -2.890625 7.097656 -2.257812 6.796875 -1.71875 C 6.492188 -1.175781 6.046875 -0.753906 5.453125 -0.453125 C 4.859375 -0.148438 4.132812 0 3.28125 0 L 1.140625 0 Z M 3.25 -0.375 C 3.78125 -0.375 4.257812 -0.503906 4.6875 -0.765625 C 5.113281 -1.035156 5.445312 -1.410156 5.6875 -1.890625 C 5.9375 -2.367188 6.0625 -2.925781 6.0625 -3.5625 C 6.0625 -4.1875 5.941406 -4.738281 5.703125 -5.21875 C 5.460938 -5.707031 5.125 -6.082031 4.6875 -6.34375 C 4.257812 -6.613281 3.773438 -6.75 3.234375 -6.75 C 2.878906 -6.75 2.519531 -6.691406 2.15625 -6.578125 L 2.15625 -0.515625 C 2.550781 -0.421875 2.914062 -0.375 3.25 -0.375 Z M 3.25 -0.375 "/></g></g></g><g clip-path="url(#f928234412)"><path fill="#8aba40" d="M 17.851562 17.871094 C 17.957031 17.871094 18.070312 17.882812 18.171875 17.898438 C 18.175781 17.902344 18.175781 17.898438 18.179688 17.898438 L 28.777344 19.710938 C 29.453125 19.824219 30.019531 20.289062 30.265625 20.925781 C 30.265625 20.925781 30.265625 20.929688 30.265625 20.929688 L 35.1875 33.542969 L 83.1875 34.738281 C 83.738281 34.753906 84.257812 35.003906 84.617188 35.417969 C 84.976562 35.835938 85.148438 36.386719 85.082031 36.9375 L 82.429688 58.855469 C 82.320312 59.777344 81.5625 60.503906 80.636719 60.578125 L 46.417969 63.296875 L 39.636719 68.632812 C 39.628906 68.640625 39.621094 68.644531 39.613281 68.652344 C 39.605469 68.65625 39.59375 68.660156 39.585938 68.664062 C 39.578125 68.667969 39.574219 68.675781 39.5625 68.679688 C 38.328125 69.605469 38.019531 70.863281 38.195312 71.5625 C 38.292969 71.960938 38.445312 72.253906 38.808594 72.480469 C 39.167969 72.707031 39.792969 72.871094 40.863281 72.808594 C 40.867188 72.808594 40.871094 72.808594 40.875 72.808594 C 40.910156 72.808594 40.945312 72.808594 40.980469 72.808594 C 40.988281 72.808594 40.992188 72.808594 41 72.808594 L 81.8125 72.925781 L 81.820312 72.925781 C 82.890625 72.921875 83.792969 73.820312 83.789062 74.890625 C 83.785156 75.964844 82.878906 76.859375 81.808594 76.84375 L 81.800781 76.84375 L 78.816406 76.839844 C 79.925781 77.546875 80.667969 78.78125 80.667969 80.1875 C 80.667969 82.367188 78.882812 84.15625 76.699219 84.15625 C 74.515625 84.15625 72.726562 82.367188 72.726562 80.1875 C 72.726562 78.773438 73.472656 77.527344 74.589844 76.820312 L 40.980469 76.726562 C 42.191406 77.410156 43.015625 78.703125 43.015625 80.1875 C 43.015625 82.367188 41.230469 84.15625 39.046875 84.15625 C 36.863281 84.15625 35.074219 82.367188 35.074219 80.1875 C 35.074219 78.289062 36.421875 76.691406 38.207031 76.304688 C 36.519531 75.707031 35.222656 74.476562 34.417969 72.59375 C 34.40625 72.570312 34.398438 72.546875 34.390625 72.523438 C 33.773438 70.0625 34.867188 67.386719 37.117188 65.644531 C 37.121094 65.636719 37.128906 65.632812 37.132812 65.625 C 37.140625 65.621094 37.140625 65.613281 37.144531 65.609375 C 37.164062 65.585938 37.1875 65.5625 37.210938 65.542969 L 42.015625 61.773438 L 27.027344 23.382812 L 17.519531 21.765625 C 17.519531 21.765625 17.515625 21.765625 17.515625 21.765625 C 16.515625 21.605469 15.785156 20.671875 15.871094 19.664062 C 15.957031 18.648438 16.839844 17.855469 17.851562 17.871094 Z M 36.632812 36.566406 L 39.394531 43.652344 L 43 43.652344 L 43 36.730469 Z M 44.375 36.765625 L 44.375 43.652344 L 51.023438 43.652344 L 51.023438 36.929688 Z M 52.402344 36.960938 L 52.402344 43.652344 L 59.050781 43.652344 L 59.050781 37.128906 Z M 60.429688 37.164062 L 60.429688 43.652344 L 67.078125 43.652344 L 67.078125 37.332031 Z M 68.453125 37.367188 L 68.453125 43.652344 L 75.105469 43.652344 L 75.105469 37.53125 Z M 76.480469 37.5625 L 76.480469 43.652344 L 81.359375 43.652344 L 82.078125 37.707031 Z M 81.191406 45.023438 L 76.480469 45.023438 L 76.480469 51.246094 L 80.441406 51.246094 Z M 75.105469 45.023438 L 68.453125 45.023438 L 68.453125 51.246094 L 75.105469 51.246094 Z M 67.078125 45.023438 L 60.429688 45.023438 L 60.429688 51.246094 L 67.078125 51.246094 Z M 59.050781 45.023438 L 52.402344 45.023438 L 52.402344 51.246094 L 59.050781 51.246094 Z M 51.023438 45.023438 L 44.375 45.023438 L 44.375 51.246094 L 51.023438 51.246094 Z M 43 45.023438 L 39.925781 45.023438 L 42.355469 51.246094 L 43 51.246094 Z M 80.273438 52.617188 L 76.480469 52.617188 L 76.480469 57.082031 L 79.769531 56.820312 Z M 75.105469 52.617188 L 68.453125 52.617188 L 68.453125 57.71875 L 75.105469 57.1875 Z M 67.078125 52.617188 L 60.425781 52.617188 L 60.425781 58.355469 L 67.078125 57.832031 Z M 59.050781 52.617188 L 52.398438 52.617188 L 52.398438 59 L 59.050781 58.46875 Z M 51.023438 52.617188 L 44.375 52.617188 L 44.375 56.402344 L 45.636719 59.636719 C 45.800781 59.558594 45.976562 59.507812 46.160156 59.492188 L 51.023438 59.105469 Z M 42.996094 52.617188 L 42.894531 52.617188 L 42.996094 52.894531 Z M 76.695312 77.851562 C 75.394531 77.851562 74.359375 78.886719 74.359375 80.1875 C 74.359375 81.484375 75.394531 82.515625 76.695312 82.515625 C 77.992188 82.515625 79.027344 81.484375 79.027344 80.1875 C 79.027344 78.886719 77.992188 77.851562 76.695312 77.851562 Z M 39.042969 77.851562 C 37.746094 77.851562 36.710938 78.886719 36.710938 80.1875 C 36.710938 81.484375 37.746094 82.515625 39.042969 82.515625 C 40.339844 82.515625 41.378906 81.484375 41.378906 80.1875 C 41.378906 78.886719 40.339844 77.851562 39.042969 77.851562 Z M 76.695312 78.960938 C 77.398438 78.960938 77.960938 79.523438 77.960938 80.226562 C 77.960938 80.933594 77.398438 81.492188 76.695312 81.492188 C 75.988281 81.492188 75.425781 80.933594 75.425781 80.226562 C 75.425781 79.523438 75.988281 78.960938 76.695312 78.960938 Z M 39.042969 78.960938 C 39.75 78.960938 40.3125 79.523438 40.3125 80.226562 C 40.3125 80.933594 39.75 81.492188 39.042969 81.492188 C 38.339844 81.492188 37.773438 80.933594 37.773438 80.226562 C 37.773438 79.523438 38.339844 78.960938 39.042969 78.960938 Z M 39.042969 78.960938 " fill-opacity="1" fill-rule="nonzero"/></g><g clip-path="url(#816b26a879)"><path fill="#dc5145" d="M 35.460938 15.722656 L 40.546875 14.898438 L 40.824219 16.59375 L 35.734375 17.417969 Z M 35.460938 15.722656 " fill-opacity="1" fill-rule="nonzero"/></g><path fill="#dc5145" d="M 51.082031 20.910156 C 50.042969 21.542969 49.671875 23.363281 50.070312 25.90625 C 50.398438 28.011719 51.214844 30.398438 52.414062 32.8125 L 53.539062 32.8125 C 53.585938 32.582031 53.722656 32.371094 53.9375 32.242188 L 59.8125 28.679688 C 60.21875 28.433594 60.746094 28.5625 60.992188 28.964844 C 61.238281 29.371094 61.109375 29.902344 60.703125 30.148438 L 56.308594 32.8125 L 64.148438 32.8125 C 63.695312 31.867188 63.183594 30.921875 62.617188 29.992188 C 60.652344 26.75 58.296875 24.023438 55.980469 22.320312 C 54.488281 21.222656 53.148438 20.648438 52.125 20.648438 C 51.726562 20.648438 51.375 20.734375 51.082031 20.910156 Z M 58.476562 26.472656 C 58.722656 26.878906 58.59375 27.410156 58.1875 27.65625 L 53.78125 30.328125 C 53.640625 30.414062 53.488281 30.453125 53.335938 30.453125 C 53.046875 30.453125 52.761719 30.304688 52.601562 30.039062 C 52.355469 29.632812 52.484375 29.105469 52.890625 28.859375 L 57.296875 26.183594 C 57.703125 25.9375 58.230469 26.070312 58.476562 26.472656 Z M 55.960938 23.980469 C 56.207031 24.386719 56.078125 24.917969 55.671875 25.164062 L 52.734375 26.945312 C 52.59375 27.027344 52.441406 27.070312 52.289062 27.070312 C 51.996094 27.070312 51.714844 26.921875 51.554688 26.65625 C 51.308594 26.25 51.4375 25.722656 51.839844 25.476562 L 54.78125 23.691406 C 55.183594 23.445312 55.714844 23.578125 55.960938 23.980469 Z M 55.960938 23.980469 " fill-opacity="1" fill-rule="nonzero"/><g clip-path="url(#bef2c76799)"><path fill="#dc5145" d="M 41.34375 36.25 C 42.574219 36.25 43.683594 36.769531 44.464844 37.597656 L 48.679688 27.710938 C 48.554688 27.183594 48.449219 26.671875 48.371094 26.171875 C 47.855469 22.859375 48.5 20.46875 50.191406 19.441406 C 50.832031 19.054688 51.578125 18.890625 52.402344 18.941406 C 52.5 18.550781 52.300781 18.132812 51.917969 17.96875 L 50.300781 17.28125 C 50.09375 17.191406 49.867188 17.191406 49.660156 17.273438 C 49.449219 17.355469 49.289062 17.515625 49.199219 17.722656 L 41.304688 36.25 C 41.320312 36.25 41.332031 36.25 41.34375 36.25 Z M 41.34375 36.25 " fill-opacity="1" fill-rule="nonzero"/></g><path fill="#dc5145" d="M 67.101562 25.472656 C 66.902344 25.839844 66.734375 26.234375 66.609375 26.652344 C 66.167969 28.160156 66.058594 30.566406 66.304688 32.8125 L 70.230469 32.8125 Z M 67.101562 25.472656 " fill-opacity="1" fill-rule="nonzero"/><path fill="#dc5145" d="M 74.6875 25.710938 C 75.421875 27.058594 77.117188 27.558594 78.464844 26.824219 C 78.882812 26.59375 79.402344 26.75 79.628906 27.164062 C 79.855469 27.582031 79.703125 28.105469 79.285156 28.332031 C 78.605469 28.703125 77.867188 28.878906 77.140625 28.878906 C 76.738281 28.878906 76.339844 28.824219 75.957031 28.722656 L 77.699219 32.8125 L 84.226562 32.8125 C 84.296875 32.8125 84.371094 32.816406 84.441406 32.820312 C 84.5625 32.53125 84.664062 32.25 84.742188 31.988281 C 85.195312 30.449219 85.019531 28.824219 84.25 27.414062 C 83.484375 26.003906 82.210938 24.976562 80.671875 24.523438 C 79.8125 24.269531 78.910156 24.214844 78.035156 24.351562 L 77.710938 25.445312 C 77.601562 25.816406 77.261719 26.058594 76.890625 26.058594 C 76.808594 26.058594 76.726562 26.050781 76.644531 26.023438 C 76.191406 25.890625 75.929688 25.414062 76.066406 24.957031 L 76.386719 23.867188 C 75.722656 23.277344 74.933594 22.835938 74.078125 22.582031 C 73.808594 22.503906 73.535156 22.445312 73.265625 22.402344 L 74.644531 25.644531 C 74.660156 25.664062 74.671875 25.6875 74.6875 25.710938 Z M 74.6875 25.710938 " fill-opacity="1" fill-rule="nonzero"/><g clip-path="url(#71a336657d)"><path fill="#dc5145" d="M 74.136719 37.597656 C 74.921875 36.769531 76.03125 36.25 77.257812 36.25 C 77.269531 36.25 77.285156 36.25 77.296875 36.25 L 69.402344 17.722656 C 69.316406 17.515625 69.152344 17.355469 68.945312 17.273438 C 68.734375 17.191406 68.507812 17.191406 68.300781 17.28125 L 66.683594 17.96875 C 66.257812 18.152344 66.058594 18.644531 66.242188 19.070312 Z M 74.136719 37.597656 " fill-opacity="1" fill-rule="nonzero"/></g><path fill="#dc5145" d="M 34.746094 32.8125 L 40.902344 32.8125 L 43.570312 26.550781 L 43.011719 26.324219 C 42.03125 25.933594 41.320312 25.046875 41.152344 24.007812 L 40.25 18.425781 L 36.855469 18.976562 L 37.761719 24.554688 C 37.929688 25.59375 37.535156 26.664062 36.726562 27.34375 L 35.230469 28.605469 C 34.597656 29.140625 34.289062 29.980469 34.417969 30.796875 Z M 34.746094 32.8125 " fill-opacity="1" fill-rule="nonzero"/><path fill="#dc5145" d="M 48.375 32.8125 L 50.507812 32.8125 C 50.109375 31.957031 49.757812 31.105469 49.457031 30.269531 Z M 48.375 32.8125 " fill-opacity="1" fill-rule="nonzero"/><path fill="#dc5145" d="M 77.40625 23.296875 C 77.515625 23.339844 77.628906 23.363281 77.738281 23.363281 C 78.074219 23.363281 78.394531 23.164062 78.53125 22.835938 C 79.484375 20.542969 81.492188 18.804688 83.894531 18.179688 C 84.351562 18.0625 84.628906 17.59375 84.507812 17.132812 C 84.390625 16.675781 83.921875 16.398438 83.460938 16.519531 C 80.542969 17.277344 78.105469 19.390625 76.945312 22.171875 C 76.761719 22.609375 76.96875 23.113281 77.40625 23.296875 Z M 77.40625 23.296875 " fill-opacity="1" fill-rule="nonzero"/></svg>